<?xml version="1.0" encoding="UTF-8" standalone="no"?>
<!-- Created with Inkscape (http://www.inkscape.org/) -->

<svg
   width="281.19684"
   height="281.19684"
   viewBox="0 0 74.400002 74.400002"
   version="1.1"
   id="svg386"
   sodipodi:docname="icon.svg"
   inkscape:version="1.1.2 (1:1.1+202202050950+0a00cf5339)"
   xmlns:inkscape="http://www.inkscape.org/namespaces/inkscape"
   xmlns:sodipodi="http://sodipodi.sourceforge.net/DTD/sodipodi-0.dtd"
   xmlns="http://www.w3.org/2000/svg"
   xmlns:svg="http://www.w3.org/2000/svg">
  <sodipodi:namedview
     id="namedview388"
     pagecolor="#ffffff"
     bordercolor="#666666"
     borderopacity="1.0"
     inkscape:pageshadow="2"
     inkscape:pageopacity="0.0"
     inkscape:pagecheckerboard="0"
     inkscape:document-units="mm"
     showgrid="false"
     width="74.4mm"
     units="px"
     inkscape:zoom="1.5037598"
     inkscape:cx="238.73493"
     inkscape:cy="182.54245"
     inkscape:window-width="2488"
     inkscape:window-height="1016"
     inkscape:window-x="1992"
     inkscape:window-y="27"
     inkscape:window-maximized="1"
     inkscape:current-layer="layer2" />
  <defs
     id="defs383">
    <inkscape:path-effect
       effect="fillet_chamfer"
       id="path-effect2220"
       is_visible="true"
       lpeversion="1"
       satellites_param="F,0,0,1,0,1.3229167,0,1 @ F,0,0,1,0,1.3229167,0,1 @ F,0,0,1,0,1.3229167,0,1 @ F,0,0,1,0,1.3229167,0,1 @ F,0,0,1,0,1.3229167,0,1 @ F,0,0,1,0,1.3229167,0,1 @ F,0,0,1,0,1.3229167,0,1 @ F,0,0,1,0,1.3229167,0,1"
       unit="px"
       method="auto"
       mode="F"
       radius="5"
       chamfer_steps="1"
       flexible="false"
       use_knot_distance="true"
       apply_no_radius="true"
       apply_with_radius="true"
       only_selected="false"
       hide_knots="false" />
    <inkscape:path-effect
       effect="fillet_chamfer"
       id="path-effect2218"
       is_visible="true"
       lpeversion="1"
       satellites_param="F,0,0,1,0,7.9375,0,1 @ F,0,0,1,0,7.9375,0,1 @ F,0,0,1,0,7.9375,0,1 @ F,0,0,1,0,7.9375,0,1 @ F,0,0,1,0,7.9375,0,1 @ F,0,0,1,0,7.9375,0,1 | F,0,0,1,0,7.9375,0,1 @ F,0,0,1,0,7.9375,0,1 @ F,0,0,1,0,7.9375,0,1 @ F,0,0,1,0,7.9375,0,1 @ F,0,0,1,0,7.9375,0,1 @ F,0,0,1,0,7.9375,0,1"
       unit="px"
       method="auto"
       mode="F"
       radius="30"
       chamfer_steps="1"
       flexible="false"
       use_knot_distance="true"
       apply_no_radius="true"
       apply_with_radius="true"
       only_selected="false"
       hide_knots="false" />
  </defs>
  <g
     inkscape:groupmode="layer"
     id="layer2"
     inkscape:label="Layer 2">
    <path
       id="path1438"
       style="fill:#000000;stroke-width:0.949829"
       d="M 132.66449,3.8988569 C 74.625635,7.2254899 24.896787,46.813713 8.7621223,102.53309 7.5429765,106.74328 10.32913,110.2168 14.712891,110.2168 H 21 c 4.38376,0 8.843757,-3.44141 10.278836,-7.58272 C 46.45683,58.833829 86.420712,28.262193 132.66648,25.074391 c 4.37254,-0.301407 11.48982,-0.301407 15.86236,0 46.24576,3.187807 86.20964,33.759442 101.38763,77.559689 1.43508,4.14131 5.89508,7.58272 10.27884,7.58272 h 6.28125 c 4.38376,0 7.16991,-3.47352 5.95077,-7.68371 C 256.29326,46.815774 206.56739,7.2281857 148.53082,3.8991957 144.15485,3.6481892 137.04047,3.6480374 132.66449,3.8988569 Z M 8.7621226,178.66418 c 16.1346664,55.71937 65.8635144,95.3076 123.9023674,98.63423 4.37598,0.25082 11.49036,0.25087 15.86634,1.1e-4 58.03962,-3.32585 107.76945,-42.91428 123.90432,-98.63434 1.21914,-4.21019 -1.56701,-7.68371 -5.95077,-7.68371 h -6.21485 c -4.38376,0 -8.84376,3.44141 -10.27883,7.58272 -15.18677,43.82567 -55.18705,74.40483 -101.46168,77.56477 -4.37273,0.2986 -11.49,0.29632 -15.86254,-0.005 C 86.420712,252.93507 46.456831,222.36344 31.278836,178.56319 29.843757,174.42188 25.38376,170.98047 21,170.98047 h -6.287109 c -4.383761,0 -7.1699144,3.47352 -5.9507684,7.68371 z"
       transform="scale(0.26458333)"
       inkscape:path-effect="#path-effect2218"
       inkscape:original-d="M 140.59766 3.671875 A 137.24659 136.92706 0 0 0 6.7753906 110.2168 L 28.9375 110.2168 A 115.80081 115.80081 0 0 1 140.59766 24.798828 A 115.80081 115.80081 0 0 1 252.25781 110.2168 L 274.41406 110.2168 A 137.24659 136.92706 0 0 0 140.59766 3.671875 z M 6.7753906 170.98047 A 137.24659 136.92706 0 0 0 140.59766 277.52539 A 137.24659 136.92706 0 0 0 274.42188 170.98047 L 252.33203 170.98047 A 115.80081 115.80081 0 0 1 140.59766 256.39844 A 115.80081 115.80081 0 0 1 28.9375 170.98047 L 6.7753906 170.98047 z " />
  </g>
  <g
     inkscape:label="Layer 1"
     inkscape:groupmode="layer"
     id="layer1">
    <path
       id="path823"
       style="fill:#000000;stroke-width:0.24187"
       d="m 35.877719,16.553909 c -10.372127,0.654285 -18.669535,8.951698 -19.323811,19.323826 -0.04599,0.729048 -0.046,1.915015 -2.9e-5,2.644073 0.654059,10.37232 8.951549,18.669994 19.323856,19.324281 0.729048,0.04599 1.915015,0.046 2.644073,2.9e-5 10.372498,-0.65407 18.67025,-8.951826 19.324311,-19.324327 0.04597,-0.729048 0.04584,-1.915035 -9.64e-4,-2.644036 -0.110345,-1.718529 -0.434845,-3.416605 -0.965952,-5.054727 -0.225296,-0.694892 -0.634228,-0.678849 -0.964098,-0.02755 -1.446148,2.855289 -4.210402,4.824282 -7.381518,5.257901 -0.723374,0.09891 -1.914358,0.09947 -2.637867,0.0018 -4.336369,-0.585651 -7.769239,-4.018523 -8.354886,-8.354893 -0.09771,-0.723505 -0.09712,-1.91446 0.0019,-2.637785 0.39822,-2.909342 2.090653,-5.490338 4.600118,-7.015274 0.623924,-0.379142 0.608433,-0.788141 -0.101745,-0.959259 -1.155614,-0.278447 -2.33309,-0.456778 -3.51933,-0.533009 -0.728998,-0.04685 -1.914991,-0.04699 -2.644048,-0.001 z"
       inkscape:path-effect="#path-effect2220"
       inkscape:original-d="m 37.199763,16.512329 a 20.687731,20.687731 0 0 0 -20.687434,20.687434 20.687731,20.687731 0 0 0 20.687434,20.687905 20.687731,20.687731 0 0 0 20.687905,-20.687905 20.687731,20.687731 0 0 0 -1.456414,-7.621264 9.762129,9.762129 0 0 1 -9.216566,6.564972 9.762129,9.762129 0 0 1 -9.76219,-9.76219 9.762129,9.762129 0 0 1 5.863927,-8.942572 20.687731,20.687731 0 0 0 -6.116662,-0.92638 z" />
  </g>
</svg>
